# xmcd
#
# Track frame offsets:
#	300
#	26875
#	50659
#	68958
#	89334
#	107516
#	130821
#	157159
#	173924
#	192624
#	209106
#	234977
#	255007
#	272491
#	286712
#
# Disc length: 4063 seconds
#
# Revision: 0
# Processed by: cddbd v1.5.2PL0 Copyright (c) Steve Scherf et al.
# Submitted via: audiograbber 1.83.01
#
DISCID=db0fdb0f
DTITLE=Howlin' Wolf  - The London Howlin' Wolf Sessions (2010)
DYEAR=2010
DGENRE=Blues
TTITLE0=Goin' Down Slow (1974 London Revisited Version) 
TTITLE1=Killing Floor (1974 London Revisited Version)
TTITLE2=I Want To Have A Word With You (1974 London Revised Version) 
TTITLE3=Worried About My Baby (Rehearsal Take)
TTITLE4=The Red Rooster (Alternate Take With Dialog)
TTITLE5=What A Woman! (Alternate Take)		
TTITLE6=Who's Been Talking? (Alternate Take With False S...) 
TTITLE7=Worried About My Baby (Alternate Take)
TTITLE8=I Ain't Superstitious (1970 Alternate Take)
TTITLE9=Highway 49 (Alternate Take) 
TTITLE10=Do The Do (Extended Alternate Take)
TTITLE11=Poor Boy (Alternate Lyrics/Mix)
TTITLE12=I Ain't Superstitious (1970 Alternate Mix)
TTITLE13=What A Woman! (Alternate Mix With Organ Ov...) 	
TTITLE14=Rockin' Daddy (Alternate Mix)
EXTD=
EXTT0=
EXTT1=
EXTT2=
EXTT3=
EXTT4=
EXTT5=
EXTT6=
EXTT7=
EXTT8=
EXTT9=
EXTT10=
EXTT11=
EXTT12=
EXTT13=
EXTT14=
PLAYORDER=
